<mxfile host="app.diagrams.net" modified="2024-01-02T18:28:50.195Z" agent="Mozilla/5.0 (Windows NT 10.0; Win64; x64) AppleWebKit/537.36 (KHTML, like Gecko) Chrome/120.0.0.0 Safari/537.36 Edg/120.0.0.0" etag="Gb3Pur106zSGMwR24Vly" version="22.1.16" type="device">
  <diagram name="Page-1" id="GCqUDogN7iYO0ULAEt7B">
    <mxGraphModel dx="1230" dy="817" grid="1" gridSize="10" guides="1" tooltips="1" connect="1" arrows="1" fold="1" page="1" pageScale="1" pageWidth="827" pageHeight="1169" math="0" shadow="0">
      <root>
        <mxCell id="0" />
        <mxCell id="1" parent="0" />
        <mxCell id="z6G-D0CVlCIuI_pGG7kf-5" style="edgeStyle=orthogonalEdgeStyle;rounded=0;orthogonalLoop=1;jettySize=auto;html=1;exitX=0.5;exitY=1;exitDx=0;exitDy=0;entryX=0.5;entryY=0;entryDx=0;entryDy=0;" edge="1" parent="1" source="z6G-D0CVlCIuI_pGG7kf-1" target="z6G-D0CVlCIuI_pGG7kf-4">
          <mxGeometry relative="1" as="geometry" />
        </mxCell>
        <mxCell id="z6G-D0CVlCIuI_pGG7kf-1" value="Bắt đầu" style="ellipse;whiteSpace=wrap;html=1;" vertex="1" parent="1">
          <mxGeometry x="360" y="90" width="120" height="80" as="geometry" />
        </mxCell>
        <mxCell id="z6G-D0CVlCIuI_pGG7kf-19" style="edgeStyle=orthogonalEdgeStyle;rounded=0;orthogonalLoop=1;jettySize=auto;html=1;exitX=0.5;exitY=1;exitDx=0;exitDy=0;entryX=0.5;entryY=0;entryDx=0;entryDy=0;" edge="1" parent="1" source="z6G-D0CVlCIuI_pGG7kf-4" target="z6G-D0CVlCIuI_pGG7kf-6">
          <mxGeometry relative="1" as="geometry" />
        </mxCell>
        <mxCell id="z6G-D0CVlCIuI_pGG7kf-4" value="Kiểm tra cờ cho phép mở cửa" style="rounded=0;whiteSpace=wrap;html=1;" vertex="1" parent="1">
          <mxGeometry x="360" y="200" width="120" height="60" as="geometry" />
        </mxCell>
        <mxCell id="z6G-D0CVlCIuI_pGG7kf-9" style="edgeStyle=orthogonalEdgeStyle;rounded=0;orthogonalLoop=1;jettySize=auto;html=1;exitX=0.5;exitY=1;exitDx=0;exitDy=0;entryX=0.5;entryY=0;entryDx=0;entryDy=0;" edge="1" parent="1" source="z6G-D0CVlCIuI_pGG7kf-6" target="z6G-D0CVlCIuI_pGG7kf-8">
          <mxGeometry relative="1" as="geometry" />
        </mxCell>
        <mxCell id="z6G-D0CVlCIuI_pGG7kf-6" value="Cho phép mở cửa" style="rhombus;whiteSpace=wrap;html=1;" vertex="1" parent="1">
          <mxGeometry x="355" y="290" width="130" height="80" as="geometry" />
        </mxCell>
        <mxCell id="z6G-D0CVlCIuI_pGG7kf-11" style="edgeStyle=orthogonalEdgeStyle;rounded=0;orthogonalLoop=1;jettySize=auto;html=1;exitX=0.5;exitY=1;exitDx=0;exitDy=0;entryX=0.5;entryY=0;entryDx=0;entryDy=0;" edge="1" parent="1" source="z6G-D0CVlCIuI_pGG7kf-8" target="z6G-D0CVlCIuI_pGG7kf-10">
          <mxGeometry relative="1" as="geometry" />
        </mxCell>
        <mxCell id="z6G-D0CVlCIuI_pGG7kf-8" value="Mở cửa" style="rounded=0;whiteSpace=wrap;html=1;" vertex="1" parent="1">
          <mxGeometry x="360" y="400" width="120" height="60" as="geometry" />
        </mxCell>
        <mxCell id="z6G-D0CVlCIuI_pGG7kf-15" style="edgeStyle=orthogonalEdgeStyle;rounded=0;orthogonalLoop=1;jettySize=auto;html=1;exitX=0.5;exitY=1;exitDx=0;exitDy=0;" edge="1" parent="1" source="z6G-D0CVlCIuI_pGG7kf-10">
          <mxGeometry relative="1" as="geometry">
            <mxPoint x="420" y="580" as="targetPoint" />
          </mxGeometry>
        </mxCell>
        <mxCell id="z6G-D0CVlCIuI_pGG7kf-10" value="Thông báo lên màn hình" style="rounded=0;whiteSpace=wrap;html=1;" vertex="1" parent="1">
          <mxGeometry x="360" y="500" width="120" height="60" as="geometry" />
        </mxCell>
        <mxCell id="z6G-D0CVlCIuI_pGG7kf-12" value="" style="endArrow=none;html=1;rounded=0;entryX=1;entryY=0.5;entryDx=0;entryDy=0;exitX=0.5;exitY=0;exitDx=0;exitDy=0;" edge="1" parent="1" source="z6G-D0CVlCIuI_pGG7kf-10" target="z6G-D0CVlCIuI_pGG7kf-6">
          <mxGeometry width="50" height="50" relative="1" as="geometry">
            <mxPoint x="390" y="450" as="sourcePoint" />
            <mxPoint x="440" y="400" as="targetPoint" />
            <Array as="points">
              <mxPoint x="420" y="480" />
              <mxPoint x="520" y="480" />
              <mxPoint x="520" y="330" />
            </Array>
          </mxGeometry>
        </mxCell>
        <mxCell id="z6G-D0CVlCIuI_pGG7kf-14" value="Kết thúc" style="ellipse;whiteSpace=wrap;html=1;" vertex="1" parent="1">
          <mxGeometry x="360" y="585" width="120" height="80" as="geometry" />
        </mxCell>
        <mxCell id="z6G-D0CVlCIuI_pGG7kf-16" value="F" style="text;html=1;align=center;verticalAlign=middle;resizable=0;points=[];autosize=1;strokeColor=none;fillColor=none;" vertex="1" parent="1">
          <mxGeometry x="480" y="300" width="30" height="30" as="geometry" />
        </mxCell>
        <mxCell id="z6G-D0CVlCIuI_pGG7kf-17" value="T" style="text;html=1;align=center;verticalAlign=middle;resizable=0;points=[];autosize=1;strokeColor=none;fillColor=none;" vertex="1" parent="1">
          <mxGeometry x="414" y="370" width="30" height="30" as="geometry" />
        </mxCell>
      </root>
    </mxGraphModel>
  </diagram>
</mxfile>
